# xmcd CD database file
#
# Track frame offsets:
#	150
#	23291
#	50673
#	83223
#	103285
#	131390
#	161683
#	175850
#	194583
#	218479
#	249828
#	278743
#	303372
#	333532
#
# Disc length: 4773 seconds
#
# Revision: 3
# Processed by: cddbd v1.5.1PL0 Copyright (c) Steve Scherf et al.
# Submitted via: Feurio! 1.67 - http://www.feurio.com
#
DISCID=ba12a30e
DTITLE=Sunshine Live Vol. 11 - CD 3
DYEAR=2004
DGENRE=Trance
TTITLE0=Narcotic Thrust - I Like It
TTITLE1=ATB - Ecstasy
TTITLE2=Pedro Del Mar Meets Sasha Da Link - The Key
TTITLE3=Alegria - La Luna
TTITLE4=DJ ISSAC - Focus
TTITLE5=Yves Deruyter - On The Move
TTITLE6=Wes and Stone - The Otherside
TTITLE7=Robot Trax Vs Juni - Read My Mind
TTITLE8=Airwarriors - Time Out
TTITLE9=Aquagen - Girl (Uhh Uhh Yeah)
TTITLE10=Tiesto - Adagio For Strings
TTITLE11=No Faces Meet Dave 202 - U Know What
TTITLE12=Klubbingman - Magic Summer Night
TTITLE13=Track 14 - DJ Falk Remix
EXTD=Bonus Mix CD mixed by DJ Falk YEAR: 2004
EXTT0=
EXTT1=
EXTT2=
EXTT3=
EXTT4=
EXTT5=
EXTT6=
EXTT7=
EXTT8=
EXTT9=
EXTT10=
EXTT11=
EXTT12=
EXTT13=
PLAYORDER=
